<?xml version="1.0" encoding="UTF-8" standalone="no"?>
<!-- Created with Inkscape (http://www.inkscape.org/) -->

<svg
   width="297.38568mm"
   height="18.62668mm"
   viewBox="0 0 297.38568 18.62668"
   version="1.1"
   id="svg904"
   inkscape:version="1.2.2 (b0a8486541, 2022-12-01)"
   sodipodi:docname="hr.svg"
   xmlns:inkscape="http://www.inkscape.org/namespaces/inkscape"
   xmlns:sodipodi="http://sodipodi.sourceforge.net/DTD/sodipodi-0.dtd"
   xmlns="http://www.w3.org/2000/svg"
   xmlns:svg="http://www.w3.org/2000/svg">
  <sodipodi:namedview
     id="namedview906"
     pagecolor="#ffffff"
     bordercolor="#000000"
     borderopacity="0.25"
     inkscape:showpageshadow="2"
     inkscape:pageopacity="0.0"
     inkscape:pagecheckerboard="0"
     inkscape:deskcolor="#d1d1d1"
     inkscape:document-units="mm"
     showgrid="false"
     inkscape:zoom="0.62092452"
     inkscape:cx="436.44596"
     inkscape:cy="99.045855"
     inkscape:window-width="1600"
     inkscape:window-height="900"
     inkscape:window-x="0"
     inkscape:window-y="0"
     inkscape:window-maximized="1"
     inkscape:current-layer="layer1" />
  <defs
     id="defs901" />
  <g
     inkscape:label="Layer 1"
     inkscape:groupmode="layer"
     id="layer1"
     transform="translate(13.189252,-122.78139)">
    <path
       d="m 99.020811,123.55747 c -1.481666,0.74084 -3.563055,3.06917 -3.563055,4.02167 0,0.28222 -1.023056,1.51695 -2.222501,2.75167 l -2.257777,2.29305 H 45.151641 c -32.843613,0 -46.3550026,-0.10583 -47.6602805,-0.42333 -1.4463889,-0.28222 -2.2577779,-0.28222 -3.6336113,0.0706 -1.6933334,0.42333 -1.7991668,0.42333 -2.8575002,-0.45862 -1.305278,-1.09361 -2.54,-1.16416 -3.4925,-0.21166 -0.917222,0.91722 -0.917222,2.8575 -0.07056,3.63361 0.881945,0.81139 2.610556,0.74083 3.4925005,-0.0706 0.7055556,-0.67027 1.7991667,-0.67027 50.3766695,-0.635 l 49.671115,0.0706 0.141111,0.88194 c 0.352777,2.36361 2.786944,3.84528 6.279445,3.88056 3.63361,0 5.67973,-0.77611 14.64028,-5.43278 2.04611,-1.05833 3.73945,-1.86972 3.81,-1.79917 0.0706,0.0706 -0.14111,0.59973 -0.42333,1.19945 -0.84667,1.5875 -0.70556,2.68111 0.42333,3.56305 2.54,2.01084 6.70278,-1.02305 6.35,-4.62138 -0.10583,-1.27 -0.0706,-1.37584 0.81139,-1.37584 0.98778,0 3.13972,0.67028 3.13972,0.9525 0,0.10584 -0.3175,0.59972 -0.70555,1.09361 -0.42333,0.49389 -0.70556,1.27 -0.635,1.65806 0.0705,0.45861 -0.35278,1.30528 -1.05833,2.08139 -1.27,1.44639 -1.34056,1.72861 -0.635,2.29305 0.42333,0.35278 0.74083,0.17639 1.62277,-0.77611 1.02306,-1.12889 1.23473,-1.19944 2.57528,-1.02305 0.81139,0.10583 1.94028,0.56444 2.46945,0.98777 0.59972,0.49389 1.48166,0.84667 2.11666,0.84667 0.635,0 1.37584,0.17639 1.65806,0.35278 0.45861,0.3175 0.45861,0.38805 0,0.70555 -0.91722,0.635 -2.92806,0.10584 -3.95111,-1.05833 -0.52917,-0.56444 -1.23473,-1.05833 -1.51695,-1.05833 -0.88194,0 -0.59972,1.05833 0.635,2.29305 l 1.16417,1.16417 h 5.29167 c 3.66888,0 5.53861,-0.14111 6.17361,-0.49389 0.91722,-0.45861 2.08139,-1.905 2.08139,-2.61055 0,-0.67028 -1.12889,-0.35278 -1.79917,0.49388 -0.84667,1.09362 -2.54,1.76389 -3.70417,1.48167 -1.37583,-0.35278 -0.81139,-1.05833 1.09361,-1.30528 1.16417,-0.14111 1.86973,-0.42333 2.32834,-0.98777 0.49389,-0.59973 1.05833,-0.84667 2.29305,-0.88195 1.44639,-0.0705 1.72861,0.0706 2.61056,1.12889 0.56444,0.67028 1.16417,1.09361 1.37583,0.98778 0.70556,-0.45861 0.38806,-1.69334 -0.67028,-2.68111 -0.77611,-0.74084 -1.05833,-1.30528 -1.05833,-2.2225 0,-0.67028 -0.24694,-1.41111 -0.52917,-1.65806 -0.28222,-0.24694 -0.52916,-0.56444 -0.52916,-0.70555 0,-0.38806 2.01083,-1.05834 3.13972,-1.05834 0.88194,0 0.91722,0.0706 0.81139,1.5875 -0.17639,1.97556 0.84667,3.73945 2.61055,4.58611 1.55223,0.74084 3.42195,0.45861 4.19806,-0.635 0.70556,-0.98777 0.67028,-1.5875 -0.14111,-3.175 -0.35278,-0.70555 -0.59972,-1.30527 -0.52917,-1.30527 0.10584,0 3.03389,1.48166 6.59695,3.28083 6.6675,3.38667 8.78416,4.1275 12.17083,4.1275 3.38667,0 6.06778,-1.86972 6.06778,-4.23333 v -0.74084 l 49.70639,0.0353 c 48.50695,0.0706 49.74167,0.0706 50.34139,0.74083 0.35278,0.38806 1.05834,0.67028 1.79917,0.67028 2.39889,0 3.4925,-2.75167 1.65806,-4.19805 -1.27,-0.98778 -2.46945,-0.91723 -3.4925,0.17638 -0.81139,0.88195 -0.91723,0.91723 -2.64584,0.49389 -1.34055,-0.3175 -2.46944,-0.3175 -4.65666,-0.0353 -1.94028,0.28222 -17.14501,0.38805 -47.8014,0.38805 h -44.90861 l -0.81139,-0.9525 c -0.42333,-0.52917 -1.34055,-1.48167 -2.08139,-2.15194 -0.70555,-0.635 -1.37583,-1.5875 -1.51694,-2.11667 -0.38806,-1.5875 -1.62278,-2.96333 -3.4925,-3.81 -1.48167,-0.70556 -2.36361,-0.84667 -5.15056,-0.84667 -3.59833,0 -4.37444,0.24695 -4.16278,1.27 0.10584,0.49389 0.38806,0.635 1.16417,0.56445 3.95111,-0.35278 6.0325,-0.17639 7.51417,0.56444 0.81139,0.42333 1.48166,0.9525 1.48166,1.12889 0,0.17639 -0.635,0 -1.41111,-0.38805 -1.65805,-0.88195 -5.08,-1.23473 -6.42055,-0.70556 -2.04611,0.77611 -2.82223,3.95111 -1.44639,5.85611 0.98778,1.37583 3.84528,2.64583 5.89139,2.64583 2.15194,0 4.40972,-0.9525 5.43278,-2.29305 0.74083,-0.9525 0.81138,-0.9525 1.48166,-0.35278 1.02306,0.91722 1.19945,1.83445 0.49389,2.57528 -2.82222,2.8575 -5.60917,2.46944 -14.04056,-1.83445 -9.17222,-4.72722 -14.49916,-5.43277 -20.14361,-2.64583 -2.46944,1.19945 -4.83305,3.24556 -4.58611,3.91583 0.10583,0.28223 -0.45861,1.09362 -1.27,1.86973 l -1.44639,1.41111 -1.19944,-1.37584 c -0.67028,-0.77611 -1.19945,-1.65805 -1.19945,-2.01083 0,-0.81139 -2.08139,-2.57528 -4.55083,-3.81 -5.60917,-2.8575 -10.75972,-2.11667 -20.77861,2.92806 -8.078619,4.05694 -10.018897,4.33916 -13.299731,1.72861 l -0.9525,-0.81139 0.917223,-1.23472 c 0.529166,-0.67028 1.058333,-1.23473 1.164166,-1.23473 0.105834,0 0.493889,0.38806 0.881945,0.88195 3.280833,4.19805 11.923897,2.18722 11.923897,-2.78695 0,-0.81138 -0.24695,-1.79916 -0.52917,-2.2225 -1.19944,-1.69333 -4.86833,-1.905 -8.184449,-0.49388 l -1.693334,0.74083 1.058334,-0.88195 c 1.587499,-1.30527 4.233339,-1.79916 6.914449,-1.27 2.43417,0.49389 3.28083,0.17639 2.57528,-0.9525 -0.3175,-0.49389 -1.02306,-0.59972 -4.05695,-0.67027 -3.13972,-0.0706 -3.88055,0.0353 -5.221113,0.67027 z m 6.279449,3.45723 c 2.43416,1.30527 -0.42334,4.58611 -3.98639,4.58611 -1.587503,0 -3.633614,-0.88195 -4.092225,-1.76389 -0.282223,-0.52917 -0.105834,-0.77611 0.987777,-1.41111 2.716388,-1.62278 5.644448,-2.2225 7.090838,-1.41111 z m 65.01694,0.24694 c 0.91723,0.3175 2.11667,0.9525 2.64584,1.37583 l 0.98778,0.81139 -0.91723,0.91723 c -1.72861,1.76388 -5.57389,1.55222 -7.51416,-0.42334 -2.43417,-2.43416 0.67027,-4.16278 4.79777,-2.68111 z m -17.70944,5.25639 c 1.62278,1.48167 1.94028,2.96333 0.635,2.96333 -1.62278,0 -3.52778,-2.99861 -2.50472,-3.98639 0.3175,-0.35277 0.35277,-0.35277 1.86972,1.02306 z m -32.17334,0 c 0.14111,1.02306 -1.55222,2.96333 -2.57527,2.96333 -1.16417,0 -1.37584,-0.49389 -0.70556,-1.72861 1.02306,-2.01083 3.06917,-2.75166 3.28083,-1.23472 z m 23.91834,2.2225 c -0.14111,0.21167 -0.635,0.38806 -1.12889,0.38806 -1.02306,0 -1.23472,-1.27 -0.21167,-1.51695 0.74084,-0.17639 1.65806,0.59972 1.34056,1.12889 z m -15.91028,-0.3175 c 0,0.635 -1.16417,0.91722 -1.65806,0.42333 -0.21166,-0.21166 -0.24694,-0.52916 -0.10583,-0.77611 0.35278,-0.56444 1.76389,-0.28222 1.76389,0.35278 z m 2.64583,2.18722 c 0,0.21167 -0.24694,0.17639 -0.52916,-0.0705 -0.28223,-0.24695 -0.52917,-0.59973 -0.52917,-0.77611 0,-0.21167 0.24694,-0.17639 0.52917,0.0705 0.28222,0.24695 0.52916,0.59972 0.52916,0.77611 z m 9.525,-0.24694 c -0.24694,0.3175 -0.52916,0.45861 -0.59972,0.38805 -0.24694,-0.24694 0.24695,-0.91722 0.67028,-0.91722 0.21167,0 0.21167,0.21167 -0.0706,0.52917 z"
       id="path10"
       style="fill:#cccccc;fill-opacity:1;stroke-width:0.0352778" />
  </g>
</svg>
