<?xml version="1.0" encoding="UTF-8" standalone="no"?>
<!-- Created with Inkscape (http://www.inkscape.org/) -->

<svg
   width="297.23624mm"
   height="19.402889mm"
   viewBox="0 0 297.23624 19.402889"
   version="1.1"
   id="svg4348"
   inkscape:version="1.2.2 (b0a8486541, 2022-12-01)"
   sodipodi:docname="hr-bottom.svg"
   xmlns:inkscape="http://www.inkscape.org/namespaces/inkscape"
   xmlns:sodipodi="http://sodipodi.sourceforge.net/DTD/sodipodi-0.dtd"
   xmlns="http://www.w3.org/2000/svg"
   xmlns:svg="http://www.w3.org/2000/svg">
  <sodipodi:namedview
     id="namedview4350"
     pagecolor="#ffffff"
     bordercolor="#000000"
     borderopacity="0.25"
     inkscape:showpageshadow="2"
     inkscape:pageopacity="0.0"
     inkscape:pagecheckerboard="0"
     inkscape:deskcolor="#d1d1d1"
     inkscape:document-units="mm"
     showgrid="false"
     inkscape:zoom="0.62092452"
     inkscape:cx="402.62543"
     inkscape:cy="28.18378"
     inkscape:window-width="1600"
     inkscape:window-height="900"
     inkscape:window-x="0"
     inkscape:window-y="0"
     inkscape:window-maximized="1"
     inkscape:current-layer="layer1" />
  <defs
     id="defs4345" />
  <g
     inkscape:label="Layer 1"
     inkscape:groupmode="layer"
     id="layer1"
     transform="translate(-2.2254764,-187.16235)">
    <path
       d="m 136.83082,206.31838 c -0.42334,-0.42334 -0.24695,-1.44639 0.28222,-1.65806 0.28222,-0.10583 0.9525,-0.0353 1.44639,0.14111 2.01083,0.77611 6.27944,0.14111 7.02028,-1.02305 0.14111,-0.28223 -0.21167,-0.24695 -1.02306,0.10583 -3.42194,1.41111 -6.52639,0.88194 -7.40833,-1.27 -0.635,-1.51694 -0.35278,-2.8575 0.84666,-4.16278 0.56445,-0.59972 0.91723,-1.05833 0.84667,-1.05833 -0.10583,0 -1.55222,0.70555 -3.24556,1.55222 -5.18583,2.57528 -7.19666,3.175 -11.00666,3.175 -3.03389,0.0353 -3.56306,-0.0705 -5.64445,-1.05833 -2.64583,-1.23472 -4.93889,-3.10445 -4.93889,-3.98639 0,-0.9525 -3.70416,-4.26861 -4.7625,-4.26861 -0.10583,0 -0.17639,0.21166 -0.14111,0.45861 0.17639,1.44639 -0.10583,2.39889 -0.9525,2.92805 -0.84667,0.56445 -0.91722,0.56445 -1.905,-0.17639 -0.56444,-0.38805 -1.44639,-0.74083 -1.94028,-0.74083 -2.11666,0 -4.40972,-1.69333 -4.40972,-3.24555 0,-0.98778 0.88194,-0.74084 2.2225,0.59972 1.44639,1.44639 2.43417,1.55222 3.52778,0.42333 1.62278,-1.76389 3.59833,-2.11667 5.64444,-1.05833 1.05834,0.52916 1.09361,0.52916 0.635,-0.0353 -0.70555,-0.84667 -2.29305,-1.62278 -3.35139,-1.62278 -0.56444,0 -1.48166,0.49389 -2.32833,1.27 -1.27,1.16417 -2.11667,1.34056 -2.11667,0.42334 0,-0.21167 0.635,-0.98778 1.41112,-1.76389 l 1.44638,-1.34056 H 84.372757 c -12.417778,0 -22.577779,0.0706 -22.577779,0.17639 0,0.10583 1.375833,0.84667 3.033889,1.5875 7.408334,3.42194 11.994445,3.38667 21.484168,-0.14111 3.104445,-1.12889 7.020278,-1.23472 9.172223,-0.24695 0.881944,0.38806 2.645833,1.94028 4.550832,4.02167 1.69333,1.86972 3.63361,3.63361 4.26861,3.91584 2.46945,1.19944 4.7625,0.45861 5.67973,-1.76389 0.56444,-1.30528 1.55222,-1.62278 1.55222,-0.49389 0,2.61055 -2.2225,4.58611 -5.11528,4.58611 -2.43417,0 -4.1275,-1.05833 -6.632223,-4.16278 -1.128889,-1.37583 -2.822222,-3.06917 -3.704167,-3.70417 -1.5875,-1.09361 -1.799167,-1.12889 -5.009445,-1.12889 -3.104444,0 -3.668889,0.10584 -7.408333,1.55223 -3.527778,1.30527 -4.515556,1.55222 -7.620001,1.69333 -4.268611,0.24694 -6.0325,-0.14111 -10.759723,-2.2225 -5.256389,-2.32833 -6.914445,-2.71639 -10.865556,-2.54 -3.527778,0.17639 -5.009445,0.67028 -11.782779,3.77472 -5.08,2.32834 -6.420555,2.64584 -11.359445,2.68111 -5.432778,0 -6.138333,-0.17639 -13.617223,-3.73944 -5.432778,-2.57528 -7.9022225,-3.28083 -12.5941672,-3.66889 -2.7163891,-0.24694 -2.9280558,-0.3175 -2.8222224,-1.02306 l 0.1058333,-0.74083 H 75.90609 c 73.30723,0 73.55417,0 73.55417,0.70556 0,0.70555 -0.28222,0.70555 -19.57917,0.88194 -15.66333,0.14111 -19.40278,0.24695 -18.62666,0.59972 0.88194,0.38806 2.25777,1.72861 4.26861,4.1275 l 0.84666,1.05834 0.98778,-0.77611 c 1.23472,-0.9525 2.43417,-0.98778 3.35139,-0.0706 0.84667,0.84667 0.9525,2.89278 0.17639,3.52778 -0.28222,0.24694 -0.52917,0.56444 -0.52917,0.70555 0,0.35278 1.97556,1.05834 2.96334,1.05834 0.67027,0 0.74083,-0.17639 0.635,-1.48167 -0.24695,-3.03389 2.92805,-5.64444 5.43277,-4.48028 0.81139,0.38806 1.05834,0.74084 1.12889,1.79917 0.0706,0.74083 -0.0705,1.62278 -0.28222,2.04611 -0.59972,1.16417 0.17639,0.88195 4.40972,-1.44639 7.12612,-3.91583 10.90084,-5.04472 14.11112,-4.23333 1.30527,0.3175 2.08138,0.3175 3.56305,0 3.38667,-0.77611 6.06778,-0.0353 13.12334,3.59833 5.43277,2.82222 6.84388,3.35139 5.67972,2.18722 -0.17639,-0.17638 -0.3175,-1.05833 -0.24695,-1.905 0.10584,-1.30527 0.24695,-1.62277 1.12889,-2.04611 0.91723,-0.42333 1.27,-0.42333 2.46945,0 1.94028,0.67028 2.8575,2.04611 2.8575,4.23334 0,1.905 0.21166,2.04611 2.32833,1.34055 1.55222,-0.52916 1.55222,-0.52916 0.88195,-1.19944 -0.77612,-0.81139 -0.74084,-3.06917 0.0705,-3.81 0.9525,-0.84667 2.43417,-0.74084 3.42195,0.24694 l 0.88194,0.88195 1.5875,-2.08139 c 0.88194,-1.12889 2.18722,-2.43417 2.89278,-2.89278 l 1.34055,-0.81139 -19.29694,-0.10583 -19.33223,-0.0706 v -0.88194 -0.88195 h 73.34251 c 75.77667,0 74.64778,-0.0353 73.83639,1.30528 -0.14111,0.21167 -1.51694,0.49389 -3.06916,0.635 -4.65667,0.38806 -6.94973,1.09361 -12.80584,3.84528 -6.59694,3.10444 -8.81944,3.73944 -12.98222,3.73944 -4.16278,0 -6.42056,-0.59972 -12.13556,-3.10444 -7.58472,-3.35139 -8.89,-3.70417 -12.94694,-3.52778 -3.31611,0.14111 -3.66889,0.24694 -8.74889,2.43417 l -5.29167,2.25777 h -4.7625 l -4.7625,-0.0353 -3.88056,-1.51695 c -3.10444,-1.23472 -4.48027,-1.55222 -6.77333,-1.69333 -4.1275,-0.28222 -5.92667,0.635 -9.31333,4.69194 -1.44639,1.72862 -3.06917,3.28084 -3.84528,3.66889 -1.79917,0.91723 -4.40972,0.91723 -5.89139,0 -1.69333,-1.02305 -2.99861,-4.58611 -1.69333,-4.58611 0.28222,0 0.74083,0.52917 1.02305,1.19945 0.635,1.55222 1.79917,2.32833 3.4925,2.32833 2.01084,0 2.96334,-0.67028 6.45584,-4.445 3.77472,-4.1275 4.86833,-4.69195 8.71361,-4.72722 2.29305,0 3.24555,0.21166 5.92666,1.23472 1.76389,0.67028 4.1275,1.48167 5.25639,1.76389 2.57528,0.67028 7.72584,0.67028 10.23056,0.0353 1.97556,-0.52917 8.11389,-3.21028 8.11389,-3.56306 0,-0.10583 -10.19528,-0.17639 -22.64834,-0.17639 h -22.64833 l 1.30528,1.19945 c 1.23472,1.12888 1.5875,1.94027 1.09361,2.43416 -0.14111,0.14111 -0.84667,-0.3175 -1.62278,-0.98778 -1.55222,-1.41111 -2.71639,-1.55222 -4.40972,-0.52916 -1.37584,0.84666 -1.51695,1.16416 -0.24695,0.70555 2.01084,-0.77611 3.95112,-0.28222 5.18584,1.30528 0.9525,1.19945 2.2225,1.05833 3.63361,-0.42333 1.27,-1.34056 2.25778,-1.62278 2.25778,-0.56445 0,1.41111 -2.46945,3.21028 -4.445,3.21028 -0.49389,0 -1.30528,0.3175 -1.86973,0.70556 -1.76388,1.34055 -3.73944,-0.28223 -3.03388,-2.43417 0.28222,-0.9525 0.0353,-0.91722 -1.72862,0.10583 -1.51694,0.88195 -3.03389,2.64584 -3.03389,3.52778 0,0.77611 -2.39888,2.68111 -4.93888,3.88056 -2.08139,0.98778 -2.61056,1.09361 -5.64445,1.05833 -3.77472,0 -5.82083,-0.59972 -10.93611,-3.06917 -3.45722,-1.69333 -3.91583,-1.86972 -3.175,-1.23472 1.94028,1.62278 2.36361,4.30389 0.91722,5.75028 -1.23472,1.19944 -3.45722,1.44639 -5.96194,0.59972 -2.36361,-0.77611 -2.71639,-0.38805 -0.42334,0.45861 1.44639,0.56445 3.45723,0.59973 6.31473,0.10584 0.88194,-0.14111 1.62277,1.02305 0.91722,1.48166 -0.81139,0.52917 -6.91445,0.42334 -8.21972,-0.14111 -1.41112,-0.59972 -2.78695,-2.08139 -3.66889,-3.88055 -1.23473,-2.61056 -2.50473,-2.61056 -3.81,0.0353 -1.65806,3.42195 -3.42195,4.33917 -8.21973,4.33917 -1.905,0 -3.59833,-0.10583 -3.70416,-0.24694 z m 8.39611,-4.48028 c 1.05833,-0.52917 1.94028,-1.09361 1.94028,-1.27 0,-0.635 -1.55223,-1.76389 -2.71639,-1.97556 -1.69334,-0.3175 -3.45723,0.10584 -4.69195,1.12889 -1.27,1.09361 -1.34055,2.01084 -0.24694,2.78695 1.05833,0.77611 3.24555,0.52916 5.715,-0.67028 z m 16.1925,0.98778 c 0.91722,-0.35278 1.34055,-1.44639 0.91722,-2.25778 -0.635,-1.19945 -3.06917,-2.2225 -4.83305,-2.01083 -1.65806,0.17638 -3.28084,1.05833 -3.28084,1.76388 0,0.49389 2.25778,1.905 3.81,2.36362 1.19945,0.35277 2.64584,0.42333 3.38667,0.14111 z m -12.55889,-5.64445 c -0.24695,-0.9525 -0.59972,-1.83444 -0.81139,-1.97555 -0.67028,-0.49389 -3.52778,-0.28223 -5.43278,0.42333 -2.54,0.91722 -2.57528,1.05833 -0.3175,0.81139 2.29306,-0.24695 4.79778,0.70555 5.78556,2.18722 0.88194,1.37583 1.30528,0.59972 0.77611,-1.44639 z m 6.94972,-0.35278 c 1.12889,-0.42333 2.08139,-0.52916 3.35139,-0.35277 0.9525,0.14111 1.76389,0.17639 1.76389,0.0705 0,-0.35278 -4.48028,-1.62278 -5.67972,-1.62278 -1.79917,0 -2.43417,0.28223 -2.43417,1.19945 -0.0353,0.38805 -0.24694,1.12889 -0.52917,1.62278 -0.3175,0.59972 -0.35277,1.02305 -0.10583,1.30527 0.24694,0.3175 0.56444,0.17639 1.19944,-0.59972 0.49389,-0.56444 1.5875,-1.27 2.43417,-1.62278 z m -28.01056,0.52917 c 1.27,-1.37583 1.34056,-2.43417 0.17639,-2.43417 -1.02305,0 -2.32833,1.51695 -2.32833,2.68112 0,1.19944 0.91722,1.05833 2.15194,-0.24695 z m 47.83667,0.52917 c 0.49389,-1.34056 -1.55222,-3.35139 -2.89277,-2.82223 -0.49389,0.17639 -0.49389,0.28223 0,1.23473 0.49389,1.02305 1.79916,2.15194 2.39889,2.15194 0.14111,0 0.35277,-0.24694 0.49388,-0.56444 z m -56.09167,-1.5875 c 0.49389,-0.49389 0.21167,-1.37584 -0.42333,-1.37584 -0.74083,0 -1.27,0.88195 -0.81139,1.34056 0.52917,0.52917 0.74083,0.52917 1.23472,0.0353 z m 63.21779,0.0705 c 0.59972,-0.38805 0.24694,-1.44639 -0.45862,-1.44639 -0.67027,0 -1.02305,0.59973 -0.77611,1.23473 0.21167,0.59972 0.52917,0.635 1.23473,0.21166 z M 36.218588,194.25333 c 2.8575,-0.70556 5.785555,-1.83445 10.230556,-3.95112 l 2.469444,-1.19944 -8.748889,-0.10583 c -4.797778,-0.0353 -12.629445,-0.0353 -17.462501,0 l -8.713612,0.10583 3.880556,1.97556 c 3.633611,1.83444 7.267223,3.24555 9.348612,3.59833 2.328333,0.38805 6.385278,0.17639 8.995834,-0.42333 z m 71.437502,-0.0706 c 0,-0.635 -0.0706,-0.67028 -0.52916,-0.3175 -0.52917,0.42333 -0.42334,1.05833 0.21166,1.05833 0.17639,0 0.3175,-0.35277 0.3175,-0.74083 z m 86.78334,0.24694 c 0,-0.28222 -0.14111,-0.59972 -0.3175,-0.74083 -0.42333,-0.24694 -0.84667,0.42333 -0.56444,0.88195 0.3175,0.52916 0.88194,0.42333 0.88194,-0.14112 z m 82.72639,-0.52916 c 2.71639,-0.9525 10.01889,-4.37445 10.01889,-4.69195 0.0353,-0.17639 -7.76111,-0.28222 -17.32139,-0.28222 -10.23055,0 -17.21555,0.14111 -17.00389,0.3175 0.74084,0.70556 9.56028,4.33917 12.06501,4.97417 3.52777,0.91722 9.10166,0.77611 12.24138,-0.3175 z"
       id="path12"
       style="fill:#cccccc;fill-opacity:1;stroke-width:0.0352778" />
  </g>
</svg>
